<?xml version="1.0" standalone="no"?>
<!DOCTYPE svg PUBLIC "-//W3C//DTD SVG 20010904//EN"
 "http://www.w3.org/TR/2001/REC-SVG-20010904/DTD/svg10.dtd">
<svg version="1.0" xmlns="http://www.w3.org/2000/svg"
 width="700.000000pt" height="700.000000pt" viewBox="0 0 700.000000 700.000000"
 preserveAspectRatio="xMidYMid meet">
<metadata>
Created by potrace 1.11, written by Peter Selinger 2001-2013
</metadata>
<g transform="translate(0.000000,700.000000) scale(0.100000,-0.100000)"
fill="#000000" stroke="none">
<path d="M3390 6850 c-72 -13 -136 -64 -164 -132 -14 -33 -16 -183 -16 -1323
0 -707 -2 -1285 -5 -1285 -3 0 -308 302 -677 671 -485 485 -683 677 -713 690
-147 65 -304 -37 -305 -199 0 -33 7 -67 20 -91 11 -23 291 -310 690 -709 368
-369 670 -673 670 -676 0 -3 -578 -6 -1285 -6 -1140 0 -1290 -2 -1323 -16 -80
-33 -133 -112 -133 -199 0 -63 18 -111 60 -154 68 -70 -31 -65 1381 -67 701
-1 1282 -2 1290 -3 8 -1 -290 -306 -662 -678 -488 -489 -682 -689 -693 -717
-77 -185 121 -369 300 -279 16 8 335 319 708 691 l677 677 0 -1291 0 -1292 28
-53 c84 -161 315 -151 389 16 16 37 17 124 19 1320 1 704 2 1284 3 1289 1 4
307 -298 681 -672 586 -585 687 -682 725 -696 124 -42 259 34 285 158 11 57 7
94 -18 146 -10 20 -295 313 -689 707 -370 369 -673 673 -673 675 0 2 582 3
1293 3 l1292 1 40 21 c79 42 119 108 119 198 0 37 -6 72 -17 91 -21 40 -73 92
-106 107 -19 9 -368 13 -1323 17 l-1298 5 669 669 c368 368 679 688 692 710
33 59 32 147 -3 207 -56 96 -174 136 -276 94 -26 -11 -242 -221 -717 -695
l-680 -680 1 1283 c0 1388 3 1329 -54 1393 -53 60 -127 87 -202 74z"/>
</g>
</svg>
